<svg id="Lag_1" data-name="Lag 1" xmlns="http://www.w3.org/2000/svg" viewBox="0 0 1277.22 1025.7"><defs><style>.cls-1{fill:#fff;}.cls-2{fill:#f0b518;}.cls-2,.cls-8{stroke:#1d1d1b;stroke-miterlimit:10;}.cls-11,.cls-3,.cls-8{isolation:isolate;font-family:ArialMT, Arial;}.cls-3,.cls-8{font-size:69.88px;}.cls-11,.cls-12,.cls-3{fill:#1d1d1b;}.cls-4{letter-spacing:-0.02em;}.cls-5{letter-spacing:-0.04em;}.cls-6{letter-spacing:-0.02em;}.cls-7{letter-spacing:-0.11em;}.cls-8{fill:none;stroke-width:0.5px;}.cls-9{letter-spacing:-0.07em;}.cls-10{letter-spacing:0em;}.cls-11{font-size:82.08px;}.cls-13{fill:#d9d9d9;}.cls-14{font-size:11.82px;font-family:MyriadPro-Regular, Myriad Pro;}.cls-15{letter-spacing:-0.01em;}.cls-16{letter-spacing:0em;}.cls-17{letter-spacing:-0.01em;}</style></defs><rect class="cls-1" width="1277.22" height="1005.48"/><rect class="cls-2" x="401.32" y="272.01" width="108.57" height="108.57"/><text class="cls-3" transform="translate(14.05 235.4)"><tspan xml:space="preserve">Man   </tspan><tspan class="cls-4" x="194.18" y="0"> </tspan><tspan class="cls-5" x="212.33" y="0">T</tspan><tspan x="252.42" y="0" xml:space="preserve">ir    Ons   </tspan><tspan class="cls-6" x="555.27" y="0"> </tspan><tspan class="cls-7" x="573.42" y="0">T</tspan><tspan x="608.36" y="0" xml:space="preserve">or    Fre    Lør    Søn</tspan></text><text class="cls-8" transform="translate(14.05 235.4)"><tspan xml:space="preserve">Man   </tspan><tspan class="cls-4" x="194.18" y="0"> </tspan><tspan class="cls-5" x="212.33" y="0">T</tspan><tspan x="252.42" y="0" xml:space="preserve">ir    Ons   </tspan><tspan class="cls-6" x="555.27" y="0"> </tspan><tspan class="cls-7" x="573.42" y="0">T</tspan><tspan x="608.36" y="0" xml:space="preserve">or    Fre    Lør    Søn</tspan></text><text class="cls-3" transform="translate(436.5 350.62)"><tspan xml:space="preserve">1        2       3        4       5</tspan></text><text class="cls-3" transform="translate(50.65 502.01)"><tspan xml:space="preserve">6        7        8        9      10      </tspan><tspan class="cls-9" x="932.1" y="0">1</tspan><tspan class="cls-10" x="965.77" y="0" xml:space="preserve">1     12 </tspan></text><text class="cls-3" transform="translate(26.84 667.38)"><tspan xml:space="preserve">13      14      15      16     17      18     19</tspan></text><text class="cls-3" transform="translate(29.91 812.66)"><tspan xml:space="preserve">20      21      22      23     24      25     26</tspan></text><text class="cls-3" transform="translate(29.91 962.39)"><tspan xml:space="preserve">27      28      29      30     31</tspan></text><text class="cls-11" transform="translate(341.16 99.76)">December 2021</text><rect class="cls-12" x="1660.32" y="121.36" width="46.75" height="11.23" transform="translate(-90.64 1161.51) rotate(-43.59)"/><rect class="cls-12" x="1679.37" y="75.04" width="11.23" height="49.07" transform="translate(-71.4 1154.84) rotate(-43.59)"/><rect class="cls-13" x="497.5" y="106.51" width="11.23" height="46.75" transform="translate(-405.16 370.33) rotate(-46.41)"/><rect class="cls-13" x="477.33" y="96.83" width="49.07" height="11.23" transform="translate(-385.67 360.91) rotate(-46.41)"/><text class="cls-14" transform="translate(1079.43 1022.75)"><tspan class="cls-15">L</tspan><tspan class="cls-16" x="5.41" y="0">o</tspan><tspan class="cls-17" x="11.91" y="0">r</tspan><tspan x="15.65" y="0">em ipsum</tspan></text></svg>