<svg xmlns="http://www.w3.org/2000/svg" viewBox="0 0 1045.38 1037.92"><defs><style>.cls-1{fill:#cfcecc;}.cls-2{fill:#fff;}.cls-3{fill:#757473;}.cls-4{fill:#479ad4;}</style></defs><g id="Lag_1" data-name="Lag 1"><circle class="cls-1" cx="521.93" cy="519.81" r="416.27"/><rect class="cls-1" x="827.5" y="23.29" width="160.66" height="115.96" transform="translate(-373.41 -42.01) rotate(1.3)"/><rect class="cls-1" x="1165.01" y="178.7" width="160.66" height="115.96" transform="translate(180.53 -848.62) rotate(46.3)"/><rect class="cls-1" x="1280.75" y="503.96" width="160.66" height="115.96" transform="translate(1578.2 -807.56) rotate(91.3)"/><rect class="cls-1" x="472.53" y="791.3" width="160.66" height="115.96" transform="translate(409.36 -158.67) rotate(46.3)"/><rect class="cls-1" x="354.94" y="493.84" width="160.66" height="115.96" transform="translate(621.31 107.67) rotate(91.3)"/><rect class="cls-1" x="808.28" y="941.64" width="160.66" height="115.96" transform="translate(-352.63 -41.34) rotate(1.3)"/><rect class="cls-1" x="1142.38" y="818.05" width="160.66" height="115.96" transform="translate(2336.43 643.05) rotate(136.3)"/><rect class="cls-1" x="498.63" y="144.47" width="160.66" height="115.96" transform="translate(761.9 -72.7) rotate(136.3)"/><circle class="cls-2" cx="522.53" cy="518.96" r="245.74"/></g><g id="Skrutrækker"><path class="cls-3" d="M912.82,721.31l-38.89-.84c2.56,59.28,3.36,103,3,115.94-.27,9.11-.88,18.21-.88,18.21-.25,3.89-.18,2.13-1.54,17.83-1,11.23-1.1,13.09-2.38,16.26-1.21,3-3.09,5.65-6.85,11-4.91,6.93-7.24,8.83-8,13.23a17.4,17.4,0,0,0,.73,8.16c2.41,8.3,6,22.56,10.78,41.28l38.89.83Z" transform="translate(-375.49 -21.48)"/><path class="cls-3" d="M873.58,720.84l38.9.14c-4,59.19-5.93,102.85-5.86,115.83,0,9.11.43,18.22.43,18.22.16,3.89.13,2.14,1.1,17.86.7,11.26.77,13.12,2,16.32,1.13,3,3,5.72,6.58,11.14,4.73,7.06,7,9,7.65,13.44a17.27,17.27,0,0,1-.93,8.13c-2.62,8.23-6.61,22.4-11.8,41l-38.9-.14Z" transform="translate(-375.49 -21.48)"/><path class="cls-4" d="M831.53,722.59a60.68,60.68,0,0,1,1.1-9.39,44.16,44.16,0,0,1,4.45-13.57c3.78-6.73,6.48-5.2,10.13-11.17,3.06-5,3.47-9.88,4.27-19.61a108.64,108.64,0,0,0,.28-14.38c-1.35-22.26-17.76-58.18-23.25-85.76a138.83,138.83,0,0,1-1.11-46.36c9.92-34.18,41.21-56.77,74.06-55,27.06,1.44,51.49,19.19,62.77,45.41,6.81,22.33,6.39,39.66,4.91,51-3.86,29.72-18.19,43.76-26.79,84.8a238.9,238.9,0,0,0-4.21,28.76,14.67,14.67,0,0,0,9.26,16,26.78,26.78,0,0,1,7.39,8.11,25.49,25.49,0,0,1,3.1,8.1,23.39,23.39,0,0,1-1.78,13.74Z" transform="translate(-375.49 -21.48)"/></g></svg>