<svg xmlns="http://www.w3.org/2000/svg" viewBox="0 0 1045.38 1037.92"><defs><style>.cls-1{fill:#cfcecc;}.cls-2{fill:#fff;}.cls-3{fill:#7db728;}</style></defs><g id="Lag_1" data-name="Lag 1"><circle class="cls-1" cx="521.93" cy="519.81" r="416.27"/><rect class="cls-1" x="827.5" y="23.29" width="160.66" height="115.96" transform="translate(-373.41 -42.01) rotate(1.3)"/><rect class="cls-1" x="1165.01" y="178.7" width="160.66" height="115.96" transform="translate(180.53 -848.62) rotate(46.3)"/><rect class="cls-1" x="1280.75" y="503.96" width="160.66" height="115.96" transform="translate(1578.2 -807.56) rotate(91.3)"/><rect class="cls-1" x="472.53" y="791.3" width="160.66" height="115.96" transform="translate(409.36 -158.67) rotate(46.3)"/><rect class="cls-1" x="354.94" y="493.84" width="160.66" height="115.96" transform="translate(621.31 107.67) rotate(91.3)"/><rect class="cls-1" x="808.28" y="941.64" width="160.66" height="115.96" transform="translate(-352.63 -41.34) rotate(1.3)"/><rect class="cls-1" x="1142.38" y="818.05" width="160.66" height="115.96" transform="translate(2336.43 643.05) rotate(136.3)"/><rect class="cls-1" x="498.63" y="144.47" width="160.66" height="115.96" transform="translate(761.9 -72.7) rotate(136.3)"/><circle class="cls-2" cx="522.53" cy="518.96" r="245.74"/></g><g id="Tjekmark"><path class="cls-3" d="M871.63,690.82c1.1-5.11,2.84-12.85,5.29-22.18,7.63-29.15,18.24-59.11,54.78-135.06,16.89-35.09,25.3-52.66,37.59-75.37,19.93-36.85,33.17-56.93,52.46-86.19,10.22-15.5,21.63-32.12,40.31-49.51,4.5-4.19,19.22-17.82,37.91-25,16.53-6.32,28.39-5.93,32.94-5.52.62.06,1,.1,1.2.13,1.45.17,16.16,2.21,23.25,14.43a25.29,25.29,0,0,1,3.27,9.67,19.73,19.73,0,0,1-1.25,10.49c-2.21,4.82-6.82,7.13-16,11.54-7,3.38-8.55,3.27-13.77,6a64.12,64.12,0,0,0-13.68,9.64c-7.18,8.31-17.16,20.45-28.1,35.85-4.48,6.31-15.3,21.92-39.07,64.13-6.71,11.92-12.82,23.07-29.94,55.21-19.08,35.83-28.7,53.7-35.6,67.28,0,0-20.91,41.17-37.65,78.5-3.91,8.73-8.28,18.85-8.28,18.85-5.18,12-7.77,18-8.26,19.59-1.62,5.32-2.54,10.24-6.35,16.55a47.08,47.08,0,0,1-3.89,5.51Q895.23,703.12,871.63,690.82Z" transform="translate(-375.49 -21.48)"/><path class="cls-3" d="M918.84,715.4,928,694,799.74,510.23c-.71-.44-15.89-9.55-31.73-1.34A32.14,32.14,0,0,0,750.75,537c72.14,104.75,125.32,181.25,128.46,184.61a48.3,48.3,0,0,0,5,4.4,15.37,15.37,0,0,0,4.68,2.78,11.59,11.59,0,0,0,4.36.52Z" transform="translate(-375.49 -21.48)"/></g></svg>